	Director:
Andrew Niccol

Writers:
Stephenie Meyer (novel), Andrew Niccol (screenplay)

Stars:
Saoirse Ronan, Max Irons, Jake Abel

Genres:
Action |  Adventure |  Romance |  Sci-Fi |  Thriller

Country:
USA

Language:
English

Format                                   : AVI
Format/Info                              : Audio Video Interleave
Format profile                           : OpenDML
Format settings                          : rec
File size                                : 1.20 GiB
Duration                                 : 1h 51mn
Overall bit rate                         : 1 534 Kbps
Writing application                      : AVI-Mux GUI 1.17.8.3, Feb 16 201019:42:50

Video
ID                                       : 0
Format                                   : MPEG-4 Visual
Format profile                           : Advanced Simple@L5
Format settings, BVOP                    : 1
Format settings, QPel                    : No
Format settings, GMC                     : No warppoints
Format settings, Matrix                  : Default (H.263)
Muxing mode                              : Packed bitstream
Codec ID                                 : XVID
Codec ID/Hint                            : XviD
Duration                                 : 1h 51mn
Bit rate                                 : 1 337 Kbps
Width                                    : 720 pixels
Height                                   : 340 pixels
Display aspect ratio                     : 2.118
Frame rate                               : 25.000 fps
Color space                              : YUV
Chroma subsampling                       : 4:2:0
Bit depth                                : 8 bits
Scan type                                : Progressive
Compression mode                         : Lossy
Bits/(Pixel*Frame)                       : 0.218
Stream size                              : 1.04 GiB (87%)
Writing library                          : XviD 64

Audio
ID                                       : 1
Format                                   : AC-3
Format/Info                              : Audio Coding 3
Mode extension                           : CM (complete main)
Format settings, Endianness              : Big
Codec ID                                 : 2000
Duration                                 : 1h 51mn
Bit rate mode                            : Constant
Bit rate                                 : 192 Kbps
Channel(s)                               : 2 channels
Channel positions                        : Front: L R
Sampling rate                            : 48.0 KHz
Bit depth                                : 16 bits
Compression mode                         : Lossy
Stream size                              : 154 MiB (13%)
Alignment                                : Aligned on interleaves
Interleave, duration                     : 64 ms (1.60 video frames)
Interleave, preload duration             : 192 ms
Title                                    : audio-eng

Screens: 
http://www.shotpix.com/images/64123981052128694723.png 
http://www.shotpix.com/images/84967055494683173260.png 
http://www.shotpix.com/images/75291464824798278087.png 
http://www.shotpix.com/images/20245017222189850639.png
